<svg xmlns="http://www.w3.org/2000/svg" xmlns:xlink="http://www.w3.org/1999/xlink" width="781" zoomAndPan="magnify" viewBox="0 0 585.75 304.499991" height="406" preserveAspectRatio="xMidYMid meet" version="1.0"><defs><g/><clipPath id="44c44ff603"><path d="M 182.222656 19.304688 L 399 19.304688 L 399 227.550781 L 182.222656 227.550781 Z M 182.222656 19.304688 " clip-rule="nonzero"/></clipPath></defs><g clip-path="url(#44c44ff603)"><path fill="#17cf73" d="M 395.203125 76.503906 C 386.28125 41.90625 356.679688 19.628906 320.945312 19.609375 C 279.582031 19.578125 238.210938 19.597656 196.847656 19.597656 L 213.054688 48.148438 C 249.039062 48.078125 285.003906 48.097656 320.988281 48.128906 C 332.859375 48.128906 343.550781 51.613281 352.5625 59.519531 C 366.601562 71.8125 370.863281 87.761719 369 105.671875 C 366.871094 126.410156 353.257812 143.820312 334.6875 148.273438 C 326.816406 150.175781 318.339844 149.429688 310.183594 150.246094 C 305.566406 150.722656 303.214844 148.804688 301.035156 144.949219 C 286 118.496094 270.738281 92.164062 255.542969 65.816406 C 252.773438 60.996094 249.75 60.945312 247.011719 65.675781 C 242.976562 72.65625 238.945312 79.640625 234.914062 86.621094 C 217.875 116.148438 200.832031 145.65625 183.8125 175.207031 C 183.292969 176.109375 182.945312 177.105469 182.230469 178.707031 L 186.847656 178.707031 C 218.832031 178.707031 250.820312 178.777344 282.804688 178.601562 C 285.132812 178.582031 286.746094 179.078125 288.0625 180.214844 C 288.898438 180.910156 289.585938 181.847656 290.28125 183.070312 C 298.636719 197.835938 307.179688 212.492188 315.582031 227.238281 L 348.671875 227.238281 C 344.726562 220.378906 340.941406 213.855469 337.191406 207.335938 C 331.84375 198.078125 326.527344 188.808594 321.25 179.601562 C 321.886719 179.105469 322.085938 178.816406 322.316406 178.804688 C 323.273438 178.714844 324.253906 178.683594 325.230469 178.644531 C 339.859375 178.039062 353.113281 173.457031 365.140625 165.175781 C 394.84375 144.796875 403.199219 107.554688 395.203125 76.503906 Z M 231.460938 149.84375 C 238.070312 138.367188 244.453125 127.296875 251.203125 115.574219 C 255.007812 122.183594 258.683594 128.578125 262.382812 135.007812 C 265.210938 139.898438 268.03125 144.816406 270.929688 149.84375 Z M 231.460938 149.84375 " fill-opacity="1" fill-rule="nonzero"/></g><g fill="#ffffff" fill-opacity="1"><g transform="translate(124.577655, 288.43169)"><g><path d="M 10.71875 0 L 10.71875 -12.921875 L 16.84375 -12.921875 L 24.046875 0 L 30.96875 0 L 22.59375 -14.625 C 24.363281 -15.5 25.773438 -16.703125 26.828125 -18.234375 C 27.878906 -19.773438 28.40625 -21.5625 28.40625 -23.59375 C 28.40625 -27.007812 27.144531 -29.609375 24.625 -31.390625 C 22.101562 -33.179688 18.875 -34.078125 14.9375 -34.078125 L 4.265625 -34.078125 L 4.265625 0 Z M 14.734375 -28.65625 C 19.273438 -28.65625 21.546875 -26.867188 21.546875 -23.296875 C 21.546875 -21.554688 20.9375 -20.273438 19.71875 -19.453125 C 18.5 -18.640625 16.867188 -18.234375 14.828125 -18.234375 L 10.71875 -18.234375 L 10.71875 -28.65625 Z M 14.734375 -28.65625 "/></g></g></g><g fill="#ffffff" fill-opacity="1"><g transform="translate(156.045963, 288.43169)"><g><path d="M 7.015625 0 L 10.015625 -8.015625 L 22.953125 -8.015625 L 26 0.5 L 32.515625 -0.40625 L 19.296875 -34.078125 L 13.78125 -34.078125 L 0.5 0 Z M 16.390625 -25.15625 L 20.953125 -13.28125 L 11.921875 -13.28125 Z M 16.390625 -25.15625 "/></g></g></g><g fill="#ffffff" fill-opacity="1"><g transform="translate(189.067648, 288.43169)"><g><path d="M 4.40625 -4.359375 C 4.40625 -3.359375 4.320312 -2.613281 4.15625 -2.125 C 3.988281 -1.644531 3.644531 -1.226562 3.125 -0.875 C 2.613281 -0.519531 1.738281 -0.128906 0.5 0.296875 L 3.109375 5.109375 C 5.140625 4.441406 6.710938 3.75 7.828125 3.03125 C 8.953125 2.3125 9.753906 1.453125 10.234375 0.453125 C 10.722656 -0.546875 10.96875 -1.832031 10.96875 -3.40625 L 10.96875 -34.078125 L 4.40625 -34.078125 Z M 4.40625 -4.359375 "/></g></g></g><g fill="#ffffff" fill-opacity="1"><g transform="translate(203.79963, 288.43169)"><g><path d="M 4.265625 -34.078125 L 4.265625 0 L 10.71875 0 L 10.71875 -34.078125 Z M 4.265625 -34.078125 "/></g></g></g><g fill="#ffffff" fill-opacity="1"><g transform="translate(218.782147, 288.43169)"><g><path d="M 13.734375 0 L 19.234375 0 L 32.515625 -34.078125 L 26 -34.078125 L 16.640625 -8.921875 L 7.015625 -34.578125 L 0.5 -33.671875 Z M 13.734375 0 "/></g></g></g><g fill="#ffffff" fill-opacity="1"><g transform="translate(251.803832, 288.43169)"><g/></g></g><g fill="#ffffff" fill-opacity="1"><g transform="translate(263.078302, 288.43169)"><g><path d="M 10.71875 0 L 10.71875 -12.921875 L 16.84375 -12.921875 L 24.046875 0 L 30.96875 0 L 22.59375 -14.625 C 24.363281 -15.5 25.773438 -16.703125 26.828125 -18.234375 C 27.878906 -19.773438 28.40625 -21.5625 28.40625 -23.59375 C 28.40625 -27.007812 27.144531 -29.609375 24.625 -31.390625 C 22.101562 -33.179688 18.875 -34.078125 14.9375 -34.078125 L 4.265625 -34.078125 L 4.265625 0 Z M 14.734375 -28.65625 C 19.273438 -28.65625 21.546875 -26.867188 21.546875 -23.296875 C 21.546875 -21.554688 20.9375 -20.273438 19.71875 -19.453125 C 18.5 -18.640625 16.867188 -18.234375 14.828125 -18.234375 L 10.71875 -18.234375 L 10.71875 -28.65625 Z M 14.734375 -28.65625 "/></g></g></g><g fill="#ffffff" fill-opacity="1"><g transform="translate(294.54661, 288.43169)"><g><path d="M 7.015625 0 L 10.015625 -8.015625 L 22.953125 -8.015625 L 26 0.5 L 32.515625 -0.40625 L 19.296875 -34.078125 L 13.78125 -34.078125 L 0.5 0 Z M 16.390625 -25.15625 L 20.953125 -13.28125 L 11.921875 -13.28125 Z M 16.390625 -25.15625 "/></g></g></g><g fill="#ffffff" fill-opacity="1"><g transform="translate(327.568295, 288.43169)"><g><path d="M 26.515625 0 L 33.015625 0 L 33.015625 -34.078125 L 26.515625 -34.078125 L 26.515625 -11.328125 L 10.71875 -34.078125 L 4.265625 -34.078125 L 4.265625 0 L 10.71875 0 L 10.71875 -22.796875 Z M 26.515625 0 "/></g></g></g><g fill="#ffffff" fill-opacity="1"><g transform="translate(364.849232, 288.43169)"><g><path d="M 4.40625 -4.359375 C 4.40625 -3.359375 4.320312 -2.613281 4.15625 -2.125 C 3.988281 -1.644531 3.644531 -1.226562 3.125 -0.875 C 2.613281 -0.519531 1.738281 -0.128906 0.5 0.296875 L 3.109375 5.109375 C 5.140625 4.441406 6.710938 3.75 7.828125 3.03125 C 8.953125 2.3125 9.753906 1.453125 10.234375 0.453125 C 10.722656 -0.546875 10.96875 -1.832031 10.96875 -3.40625 L 10.96875 -34.078125 L 4.40625 -34.078125 Z M 4.40625 -4.359375 "/></g></g></g><g fill="#ffffff" fill-opacity="1"><g transform="translate(379.581215, 288.43169)"><g><path d="M 7.015625 0 L 10.015625 -8.015625 L 22.953125 -8.015625 L 26 0.5 L 32.515625 -0.40625 L 19.296875 -34.078125 L 13.78125 -34.078125 L 0.5 0 Z M 16.390625 -25.15625 L 20.953125 -13.28125 L 11.921875 -13.28125 Z M 16.390625 -25.15625 "/></g></g></g><g fill="#ffffff" fill-opacity="1"><g transform="translate(412.6029, 288.43169)"><g><path d="M 26.515625 0 L 33.015625 0 L 33.015625 -34.078125 L 26.515625 -34.078125 L 26.515625 -11.328125 L 10.71875 -34.078125 L 4.265625 -34.078125 L 4.265625 0 L 10.71875 0 L 10.71875 -22.796875 Z M 26.515625 0 "/></g></g></g><g fill="#ffffff" fill-opacity="1"><g transform="translate(449.883628, 288.43169)"><g/></g></g></svg>